<svg xmlns="http://www.w3.org/2000/svg" className="h-8 max-h-full w-8 md:h-12 md:w-12" version="1.1" viewBox="0 0 50 50"><g id="lockup4-icon"><g fill="#2563EB" transform="translate(24.75 24.75) scale(1.4285714285714286)"><g id="container"><g fill="#2563EB" transform="translate(-17.325 -17.325) scale(0.35)"><rect width="98" height="98" x="1" y="1" rx="10" vectorEffect="non-scaling-stroke"/></g></g><g id="icon"><g fill="#FFF"><path d="M53.406 36.706l-10.156.001c0 5.521 4.547 9.999 10.156 9.999 9.07 0 16.592 7.522 16.592 16.592H70c0 9.07-7.522 16.592-16.592 16.592H0l31 19.999v-5a5 5 0 0 1 5-5h17.408v.003C68.07 89.892 80 77.962 80 63.298c0-14.662-11.93-26.592-26.594-26.592z" transform="translate(-9.9 -10.000000000000002) scale(0.19999999999999998)"/><path d="M46.592 63.294l10.157-.001c0-5.521-4.548-9.999-10.157-9.999C37.521 53.294 30 45.771 30 36.702c0-9.07 7.522-16.591 16.592-16.591H100l-31-20v5a5 5 0 0 1-5 5H46.592v-.003C31.93 10.108 20 22.038 20 36.702h-.002c0 14.662 11.93 26.592 26.594 26.592z" transform="translate(-9.9 -10.000000000000002) scale(0.19999999999999998)"/></g></g></g></g></svg>